<svg xmlns="http://www.w3.org/2000/svg" width="360" height="100" viewBox="0 0 360 100"><g transform="translate(569 -369)"><rect width="360" height="100" transform="translate(-569 369)" fill="none"/><path d="M1.491-25.221h9.352V0h6.384V-25.221h9.352v-5.325H1.491Zm38.6,15.467a4.315,4.315,0,0,1-4.37,4.683c-2.4,0-3.952-1.685-3.967-4.385V-22.909H25.4V-8.322C25.418-2.968,28.55.3,33.159.3a7.031,7.031,0,0,0,6.95-4.46h.239V0h6.1V-22.909H40.094ZM49.419,0h6.354V-12.961a4.548,4.548,0,0,1,4.609-4.728,4.721,4.721,0,0,1,2.163.537l1.909-5.25a6.03,6.03,0,0,0-3.132-.835,5.553,5.553,0,0,0-5.5,4.325h-.239v-4h-6.16ZM71.674-13.244c.015-2.953,1.775-4.683,4.34-4.683s4.087,1.67,4.072,4.474V0H86.44V-14.587c0-5.339-3.132-8.621-7.9-8.621-3.4,0-5.862,1.67-6.891,4.34h-.268v-4.042H65.321V0h6.354ZM89.337,0H95.69V-22.909H89.337Zm3.192-25.773a3.4,3.4,0,0,0,3.445-3.341,3.41,3.41,0,0,0-3.445-3.356,3.406,3.406,0,0,0-3.43,3.356A3.394,3.394,0,0,0,92.528-25.773ZM98.661,8.591h6.354V-3.669h.194a6.772,6.772,0,0,0,6.5,4.042c5.22,0,9.292-4.131,9.292-11.8,0-7.875-4.251-11.783-9.277-11.783a6.75,6.75,0,0,0-6.518,4.146h-.283v-3.848H98.661Zm6.219-20.045c0-4.087,1.73-6.7,4.817-6.7,3.147,0,4.817,2.729,4.817,6.7,0,4-1.7,6.771-4.817,6.771C106.641-4.683,104.881-7.368,104.881-11.455Z" transform="translate(-450 434)" fill="#1b1919"/></g></svg>